<?xml version="1.0" encoding="iso-8859-1"?>
<!-- Generator: Adobe Illustrator 18.0.0, SVG Export Plug-In . SVG Version: 6.00 Build 0)  -->
<!DOCTYPE svg PUBLIC "-//W3C//DTD SVG 1.1//EN" "http://www.w3.org/Graphics/SVG/1.1/DTD/svg11.dtd">
<svg version="1.1" id="Capa_1" xmlns="http://www.w3.org/2000/svg" xmlns:xlink="http://www.w3.org/1999/xlink" x="0px" y="0px"
	 viewBox="0 0 449.055 449.055" style="enable-background:new 0 0 449.055 449.055;" xml:space="preserve">
<path d="M6.988,275.586c0,2.68,1.43,5.155,3.75,6.495l26.712,15.422l13.984,56.476c0.49,1.979,1.764,3.672,3.529,4.692l154.76,89.38
	l0.001-0.002c0.261,0.151,0.531,0.288,0.812,0.407c0.941,0.4,1.94,0.599,2.936,0.599c1.3,0,2.595-0.337,3.75-1.005l176.889-102.127
	c1.884-1.088,3.203-2.94,3.615-5.077l21.482-111.542l19.125-11.042c2.32-1.34,3.75-3.815,3.75-6.495l0-51.064
	c0-2.679-1.429-5.155-3.749-6.495l-49.426-28.543l-13.755-31.782c-0.64-1.478-1.738-2.711-3.133-3.516L217.241,1.005
	c-2.824-1.632-6.379-1.25-8.793,0.944c-2.414,2.193-3.134,5.695-1.781,8.662l34.029,74.65l-71.44,41.246l-84.68-48.906
	c-2.141-1.237-4.752-1.338-6.982-0.274c-2.23,1.064-3.793,3.159-4.178,5.601L56.263,191.744l-45.541,26.293
	c-2.32,1.34-3.75,3.815-3.75,6.495C6.971,224.616,6.988,275.586,6.988,275.586z M162.138,301.128l27.149-15.675l-1.185,8.896
	l-18.853,10.885L162.138,301.128z M287.324,84.322l89.788,51.851l16.985,39.244l-92.163,53.21l-14.61-8.436V84.322z
	 M286.934,237.288l-82.438,47.596l1.185-8.896l74.143-42.806L286.934,237.288z M29.471,224.532l139.782-80.704l36.123,20.862
	l-13.59,101.999l-44.649,25.778L29.471,224.532z M154.257,135.167l-81.288,46.932l13.564-86.045L154.257,135.167z M184.253,135.169
	l88.071-50.848v135.871l-64.143,37.033l12.727-95.528c0.401-3.011-1.053-5.966-3.683-7.485L184.253,135.169z M367.117,113.081
	l-83.542-48.245c-2.32-1.34-5.18-1.34-7.5,0l-22.328,12.891l-23.71-52.014l132.336,76.404L367.117,113.081z M419.585,160.702
	l-12.411,7.166l-8.271-19.11L419.585,160.702z M427.083,207.437l-250.334,144.53v-33.744l8.853-5.111l-1.673,12.554
	c-0.546,4.106,2.339,7.878,6.445,8.424c0.336,0.044,0.67,0.066,0.999,0.066c3.703,0,6.923-2.741,7.425-6.512l3.197-23.998
	l198.099-114.372l5.497,12.7c1.225,2.831,3.986,4.523,6.887,4.523c0.994,0,2.004-0.199,2.975-0.619
	c3.801-1.645,5.549-6.061,3.904-9.862l-6.186-14.292l13.912-8.032V207.437z M218.357,430.074l-18.361-74.207l202.025-116.639
	l-18.377,95.418L218.357,430.074z M55.481,307.913l110.037,63.53c1.16,0.67,2.455,1.005,3.75,1.005s2.589-0.335,3.75-1.005
	l13.458-7.77l15.482,62.572l-136.73-78.968L55.481,307.913z M21.988,271.255v-33.724l139.761,80.692v33.723L21.988,271.255z"/>
<g>
</g>
<g>
</g>
<g>
</g>
<g>
</g>
<g>
</g>
<g>
</g>
<g>
</g>
<g>
</g>
<g>
</g>
<g>
</g>
<g>
</g>
<g>
</g>
<g>
</g>
<g>
</g>
<g>
</g>
</svg>
